HIERARCHY
ROOT Hips
{
	OFFSET 0.000000 0.000000 0.000000
	CHANNELS 6 Xposition Yposition Zposition Zrotation Yrotation Xrotation 
	JOINT LHipJoint
	{
		OFFSET 0.000000 0.000000 0.000000
		CHANNELS 3 Zrotation Yrotation Xrotation
		JOINT LeftUpLeg
		{
			OFFSET 1.363060 -1.794630 0.839290
			CHANNELS 3 Zrotation Yrotation Xrotation
			JOINT LeftLeg
			{
				OFFSET 2.448110 -6.726130 0.000000
				CHANNELS 3 Zrotation Yrotation Xrotation
				JOINT LeftFoot
				{
					OFFSET 2.562200 -7.039590 0.000000
					CHANNELS 3 Zrotation Yrotation Xrotation
					JOINT LeftToeBase
					{
						OFFSET 0.157640 -0.433110 2.322550
						CHANNELS 3 Zrotation Yrotation Xrotation
						End Site
						{
							OFFSET 0.000000 0.000000 0.000000
						}
					}
				}
			}
		}
	}
	JOINT RHipJoint
	{
		OFFSET 0.000000 0.000000 0.000000
		CHANNELS 3 Zrotation Yrotation Xrotation
		JOINT RightUpLeg
		{
			OFFSET -1.305520 -1.794630 0.839290
			CHANNELS 3 Zrotation Yrotation Xrotation
			JOINT RightLeg
			{
				OFFSET -2.542530 -6.985550 0.000000
				CHANNELS 3 Zrotation Yrotation Xrotation
				JOINT RightFoot
				{
					OFFSET -2.568260 -7.056230 0.000000
					CHANNELS 3 Zrotation Yrotation Xrotation
					JOINT RightToeBase
					{
						OFFSET -0.164730 -0.452590 2.363150
						CHANNELS 3 Zrotation Yrotation Xrotation
						End Site
						{
							OFFSET 0.000000 0.000000 0.000000
						}
					}
				}
			}
		}
	}
	JOINT LowerBack
	{
		OFFSET 0.000000 0.000000 0.000000
		CHANNELS 3 Zrotation Yrotation Xrotation
		JOINT Spine
		{
			OFFSET 0.028270 2.035590 -0.193380
			CHANNELS 3 Zrotation Yrotation Xrotation
			JOINT Spine1
			{
				OFFSET 0.056720 2.048850 -0.042750
				CHANNELS 3 Zrotation Yrotation Xrotation
				JOINT Neck
				{
					OFFSET 0.000000 0.000000 0.000000
					CHANNELS 3 Zrotation Yrotation Xrotation
					JOINT Neck1
					{
						OFFSET -0.054170 1.746240 0.172020
						CHANNELS 3 Zrotation Yrotation Xrotation
						JOINT Head
						{
							OFFSET 0.104070 1.761360 -0.123970
							CHANNELS 3 Zrotation Yrotation Xrotation
							End Site
							{
								OFFSET 0.000000 0.000000 0.000000
							}
						}
					}
				}
				JOINT LeftShoulder
				{
					OFFSET 0.000000 0.000000 0.000000
					CHANNELS 3 Zrotation Yrotation Xrotation
					JOINT LeftArm
					{
						OFFSET 3.362410 1.200890 -0.311210
						CHANNELS 3 Zrotation Yrotation Xrotation
						JOINT LeftForeArm
						{
							OFFSET 4.983000 -0.000000 -0.000000
							CHANNELS 3 Zrotation Yrotation Xrotation
							JOINT LeftHand
							{
								OFFSET 3.483560 -0.000000 -0.000000
								CHANNELS 3 Zrotation Yrotation Xrotation
								JOINT LeftFingerBase
								{
									OFFSET 0.000000 0.000000 0.000000
									CHANNELS 3 Zrotation Yrotation Xrotation
									JOINT LeftHandIndex1
									{
										OFFSET 0.715260 -0.000000 -0.000000
										CHANNELS 3 Zrotation Yrotation Xrotation
										End Site
										{
											OFFSET 0.000000 0.000000 0.000000
										}
									}
								}
								JOINT LThumb
								{
									OFFSET 0.000000 0.000000 0.000000
									CHANNELS 3 Zrotation Yrotation Xrotation
									End Site
									{
										OFFSET 0.000000 0.000000 0.000000
									}
								}
							}
						}
					}
				}
				JOINT RightShoulder
				{
					OFFSET 0.000000 0.000000 0.000000
					CHANNELS 3 Zrotation Yrotation Xrotation
					JOINT RightArm
					{
						OFFSET -3.136600 1.374050 -0.404650
						CHANNELS 3 Zrotation Yrotation Xrotation
						JOINT RightForeArm
						{
							OFFSET -5.241900 -0.000000 -0.000000
							CHANNELS 3 Zrotation Yrotation Xrotation
							JOINT RightHand
							{
								OFFSET -3.444170 -0.000000 -0.000000
								CHANNELS 3 Zrotation Yrotation Xrotation
								JOINT RightFingerBase
								{
									OFFSET 0.000000 0.000000 0.000000
									CHANNELS 3 Zrotation Yrotation Xrotation
									JOINT RightHandIndex1
									{
										OFFSET -0.622530 -0.000000 -0.000000
										CHANNELS 3 Zrotation Yrotation Xrotation
										End Site
										{
											OFFSET 0.000000 0.000000 0.000000
										}
									}
								}
								JOINT RThumb
								{
									OFFSET 0.000000 0.000000 0.000000
									CHANNELS 3 Zrotation Yrotation Xrotation
									End Site
									{
										OFFSET 0.000000 0.000000 0.000000
									}
								}
							}
						}
					}
				}
			}
		}
	}
}
MOTION
Frames: 6
Frame Time: 0.008333
-8.115988 17.247582 -2.183502 8.385708 82.624538 42.438266 -8.541493 -1.843861 1.389483 -6.628745 -1.335080 -50.762683 -3.307898 -1.551922 4.209093 0.685109 3.094272 -2.121644 0.766300 0.000001 -43.426400 10.101603 -0.981449 -1.298432 5.688492 6.421087 -22.242651 0.212808 -2.104808 34.963507 -1.055166 -4.861833 5.692214 -1.352700 0.000000 -56.729200 -1.486682 2.863026 3.268601 -1.316606 2.904306 -2.660369 -5.142125 2.813953 -0.750051 8.598443 5.032638 3.578125 -2.824971 -0.337705 2.653355 0.000000 0.000000 0.000000 -3.873858 0.711228 3.552605 -53.204029 2.375294 6.333009 -4.225625 -4.748980 -0.014768 0.406165 5.681838 0.027313 -0.146770 0.009368 -0.000000 0.000000 0.000000 0.000000 0.000000 0.000000 0.000000 11.500437 8.916343 -3.057501 98.615266 33.433411 54.844494 0.898151 64.025786 0.010338 2.875430 14.763432 0.395642 -0.064639 -0.528227 -0.000000 0.000000 0.000000 0.000000 0.000000 0.000000 0.000000 
-7.917344 17.155070 -2.187409 10.567537 82.741705 44.403408 -8.504485 -1.798586 1.476218 -6.125827 -2.098954 -51.274711 -3.199153 -1.315490 6.071506 0.683501 3.149470 -1.691543 0.807800 -0.000000 -44.448400 10.223096 -0.940876 -1.387383 5.473443 6.316537 -22.404017 0.071891 -2.262529 37.454994 -1.246796 -5.885290 4.513425 -1.468900 0.000000 -54.743800 -1.707653 2.870680 3.258648 -1.358380 2.922650 -2.671165 -5.128921 2.834354 -0.786857 8.536582 5.055494 3.560306 -2.802787 -0.336839 2.651340 0.000000 0.000000 0.000000 -3.655448 0.872787 3.580558 -52.856284 1.906612 5.868556 -4.221729 -3.885875 -0.015702 0.984143 5.877318 0.057898 -0.149267 0.012567 -0.000000 0.000000 0.000000 0.000000 0.000000 0.000000 0.000000 11.326266 8.990814 -3.147682 99.019125 33.463304 54.892248 0.873594 64.380625 0.009677 2.841667 14.897898 0.394937 -0.066575 -0.534773 -0.000000 0.000000 0.000000 0.000000 0.000000 0.000000 0.000000 
-7.720545 17.052041 -2.189530 13.534822 82.887208 47.148660 -8.454233 -1.721532 1.530041 -5.888754 -2.831734 -52.023896 -3.103782 -1.016298 8.551335 0.687693 3.191331 -1.368131 0.837499 0.000000 -45.333200 10.371377 -0.889404 -1.468245 5.191944 6.130741 -22.672058 -0.069480 -2.426466 40.096187 -1.454109 -6.992226 3.155382 -1.545700 -0.000000 -52.584500 -1.974193 2.847246 3.259600 -1.407929 2.912512 -2.681876 -5.121889 2.826141 -0.830506 8.504434 5.084007 3.525792 -2.789785 -0.336167 2.644817 0.000000 0.000000 0.000000 -3.433757 0.981248 3.615998 -52.508132 1.391581 5.368395 -4.215075 -3.013596 -0.016730 1.600613 6.069944 0.092481 -0.151679 0.016399 -0.000000 0.000000 0.000000 0.000000 0.000000 0.000000 0.000000 11.234597 9.051276 -3.216148 99.301887 33.468865 54.799419 0.847259 64.643001 0.008609 2.757728 15.023470 0.387027 -0.068147 -0.540602 -0.000000 0.000000 0.000000 0.000000 0.000000 0.000000 0.000000 
-7.525823 16.939158 -2.190037 17.119672 83.045971 50.501944 -8.396712 -1.621601 1.530951 -5.962179 -3.430009 -53.039485 -3.026016 -0.647928 11.679280 0.682061 3.116346 -1.216530 0.832600 -0.000001 -45.998700 10.538769 -0.832158 -1.535321 4.873994 5.891267 -23.027817 -0.209557 -2.593743 42.846180 -1.671807 -8.153876 1.640607 -1.566100 -0.000000 -50.264500 -2.265310 2.799150 3.284189 -1.461345 2.879305 -2.689244 -5.122295 2.794685 -0.878623 8.495003 5.120182 3.469557 -2.786663 -0.335613 2.632206 0.000000 0.000000 0.000000 -3.227087 1.067101 3.658459 -52.144060 0.801842 4.890766 -4.208015 -2.143597 -0.017858 2.213608 6.259780 0.128864 -0.153974 0.020833 -0.000000 0.000000 0.000000 0.000000 0.000000 0.000000 0.000000 11.219187 9.103161 -3.264044 99.468918 33.447846 54.559234 0.819782 64.809759 0.007227 2.645737 15.135829 0.374814 -0.069716 -0.545539 -0.000000 0.000000 0.000000 0.000000 0.000000 0.000000 0.000000 
-7.333689 16.817737 -2.188489 21.293636 83.192021 54.427720 -8.330925 -1.507623 1.476317 -6.321845 -3.894401 -54.250283 -2.950923 -0.223439 15.344220 0.672741 2.966645 -1.263065 0.796800 0.000000 -46.398200 10.725972 -0.768987 -1.591980 4.515655 5.604067 -23.453822 -0.346625 -2.765348 45.675205 -1.889903 -9.310328 -0.020292 -1.508000 -0.000000 -47.723300 -2.585821 2.732341 3.342637 -1.520719 2.828880 -2.693361 -5.131899 2.745811 -0.941264 8.510020 5.169186 3.402953 -2.794610 -0.335413 2.616398 0.000000 0.000000 0.000000 -3.044556 1.068424 3.708438 -51.756423 0.218130 4.364414 -4.202284 -1.320039 -0.019056 2.795624 6.439124 0.165148 -0.156055 0.025874 -0.000000 0.000000 0.000000 0.000000 0.000000 0.000000 0.000000 11.289358 9.155556 -3.285154 99.514024 33.392762 54.150585 0.791374 64.873381 0.005610 2.526803 15.231279 0.360895 -0.071766 -0.549584 -0.000000 0.000000 0.000000 0.000000 0.000000 0.000000 0.000000 
-7.144507 16.689302 -2.185318 25.805660 83.308248 58.675976 -8.263554 -1.393705 1.365580 -6.902072 -4.217085 -55.596655 -2.863659 0.243649 19.441456 0.665620 2.774045 -1.558352 0.731999 -0.000000 -46.439400 10.921898 -0.702990 -1.641719 4.145433 5.297000 -23.934715 -0.479850 -2.940242 48.549581 -2.099515 -10.413492 -1.799807 -1.360499 -0.000000 -45.023500 -2.914570 2.654466 3.444238 -1.582485 2.767587 -2.689692 -5.150487 2.685967 -1.010582 8.540615 5.232248 3.321178 -2.813474 -0.335435 2.595587 0.000000 0.000000 0.000000 -2.907302 1.041773 3.763213 -51.334665 -0.428009 3.880222 -4.199130 -0.535768 -0.020293 3.318921 6.602923 0.199432 -0.157857 0.031473 -0.000000 0.000000 0.000000 0.000000 0.000000 0.000000 0.000000 11.432164 9.211189 -3.284608 99.448786 33.302135 53.569285 0.762821 64.828054 0.003869 2.421444 15.306006 0.348370 -0.074562 -0.552458 -0.000000 0.000000 0.000000 0.000000 0.000000 0.000000 0.000000 
